<mxfile host="app.diagrams.net" modified="2022-08-10T17:37:39.950Z" agent="5.0 (Windows NT 10.0; Win64; x64) AppleWebKit/537.36 (KHTML, like Gecko) Chrome/100.0.4896.75 Safari/537.36" etag="yH3QclWHheA9Ri7ZUjn7" version="20.2.3" type="github">
  <diagram id="C5RBs43oDa-KdzZeNtuy" name="Page-1">
    <mxGraphModel dx="1422" dy="794" grid="0" gridSize="10" guides="1" tooltips="1" connect="1" arrows="1" fold="1" page="1" pageScale="1" pageWidth="583" pageHeight="827" background="#CCE5FF" math="0" shadow="1">
      <root>
        <mxCell id="WIyWlLk6GJQsqaUBKTNV-0" />
        <mxCell id="WIyWlLk6GJQsqaUBKTNV-1" parent="WIyWlLk6GJQsqaUBKTNV-0" />
        <mxCell id="Ib47aiiZTjz7XEFrxoLK-0" value="I" style="ellipse;whiteSpace=wrap;html=1;rounded=1;fillColor=#f5f5f5;strokeColor=#666666;gradientColor=#b3b3b3;" parent="WIyWlLk6GJQsqaUBKTNV-1" vertex="1">
          <mxGeometry x="563" y="62" width="40" height="40" as="geometry" />
        </mxCell>
        <mxCell id="Ib47aiiZTjz7XEFrxoLK-1" value="COMIENZO DEL MICRO" style="rounded=1;whiteSpace=wrap;html=1;fillColor=#f5f5f5;gradientColor=#b3b3b3;strokeColor=#666666;" parent="WIyWlLk6GJQsqaUBKTNV-1" vertex="1">
          <mxGeometry x="523" y="172" width="120" height="60" as="geometry" />
        </mxCell>
        <mxCell id="Ib47aiiZTjz7XEFrxoLK-3" value="" style="endArrow=none;html=1;rounded=1;exitX=0.5;exitY=0;exitDx=0;exitDy=0;entryX=0.5;entryY=1;entryDx=0;entryDy=0;fillColor=#b0e3e6;strokeColor=#0e8088;" parent="WIyWlLk6GJQsqaUBKTNV-1" source="Ib47aiiZTjz7XEFrxoLK-1" target="Ib47aiiZTjz7XEFrxoLK-0" edge="1">
          <mxGeometry width="50" height="50" relative="1" as="geometry">
            <mxPoint x="553" y="162" as="sourcePoint" />
            <mxPoint x="603" y="112" as="targetPoint" />
          </mxGeometry>
        </mxCell>
        <mxCell id="Ib47aiiZTjz7XEFrxoLK-7" value="&lt;i style=&quot;&quot;&gt;mientras que&lt;/i&gt;" style="rhombus;whiteSpace=wrap;html=1;rounded=1;fillColor=#f5f5f5;gradientColor=#b3b3b3;strokeColor=#666666;" parent="WIyWlLk6GJQsqaUBKTNV-1" vertex="1">
          <mxGeometry x="523" y="302" width="120" height="60" as="geometry" />
        </mxCell>
        <mxCell id="Ib47aiiZTjz7XEFrxoLK-8" value="" style="endArrow=classic;html=1;rounded=1;entryX=0.5;entryY=0.041;entryDx=0;entryDy=0;entryPerimeter=0;fillColor=#b0e3e6;strokeColor=#0e8088;" parent="WIyWlLk6GJQsqaUBKTNV-1" target="Ib47aiiZTjz7XEFrxoLK-7" edge="1">
          <mxGeometry width="50" height="50" relative="1" as="geometry">
            <mxPoint x="583" y="232" as="sourcePoint" />
            <mxPoint x="583" y="302" as="targetPoint" />
            <Array as="points" />
          </mxGeometry>
        </mxCell>
        <mxCell id="Ib47aiiZTjz7XEFrxoLK-28" value="led1 apagado" style="rounded=1;whiteSpace=wrap;html=1;fillColor=#f5f5f5;gradientColor=#b3b3b3;strokeColor=#666666;" parent="WIyWlLk6GJQsqaUBKTNV-1" vertex="1">
          <mxGeometry x="653" y="462" width="60" height="30" as="geometry" />
        </mxCell>
        <mxCell id="Ib47aiiZTjz7XEFrxoLK-29" value="enciendo el led1" style="rounded=1;whiteSpace=wrap;html=1;fillColor=#f5f5f5;gradientColor=#b3b3b3;strokeColor=#666666;" parent="WIyWlLk6GJQsqaUBKTNV-1" vertex="1">
          <mxGeometry x="453" y="462" width="60" height="30" as="geometry" />
        </mxCell>
        <mxCell id="Ib47aiiZTjz7XEFrxoLK-32" value="boton2 apretado?" style="rounded=1;whiteSpace=wrap;html=1;fillColor=#f5f5f5;gradientColor=#b3b3b3;strokeColor=#666666;" parent="WIyWlLk6GJQsqaUBKTNV-1" vertex="1">
          <mxGeometry x="533" y="542" width="100" height="20" as="geometry" />
        </mxCell>
        <mxCell id="Ib47aiiZTjz7XEFrxoLK-33" value="led2 apagado" style="rounded=1;whiteSpace=wrap;html=1;fillColor=#f5f5f5;gradientColor=#b3b3b3;strokeColor=#666666;" parent="WIyWlLk6GJQsqaUBKTNV-1" vertex="1">
          <mxGeometry x="653" y="602" width="60" height="30" as="geometry" />
        </mxCell>
        <mxCell id="Ib47aiiZTjz7XEFrxoLK-34" value="enciendo el led2" style="rounded=1;whiteSpace=wrap;html=1;fillColor=#f5f5f5;gradientColor=#b3b3b3;strokeColor=#666666;" parent="WIyWlLk6GJQsqaUBKTNV-1" vertex="1">
          <mxGeometry x="453" y="602" width="60" height="30" as="geometry" />
        </mxCell>
        <mxCell id="Ib47aiiZTjz7XEFrxoLK-43" value="boton3 apretado?" style="rounded=1;whiteSpace=wrap;html=1;fillColor=#f5f5f5;gradientColor=#b3b3b3;strokeColor=#666666;" parent="WIyWlLk6GJQsqaUBKTNV-1" vertex="1">
          <mxGeometry x="533" y="682" width="100" height="20" as="geometry" />
        </mxCell>
        <mxCell id="Ib47aiiZTjz7XEFrxoLK-44" value="led3 apagado" style="rounded=1;whiteSpace=wrap;html=1;fillColor=#f5f5f5;gradientColor=#b3b3b3;strokeColor=#666666;" parent="WIyWlLk6GJQsqaUBKTNV-1" vertex="1">
          <mxGeometry x="653" y="742" width="60" height="30" as="geometry" />
        </mxCell>
        <mxCell id="Ib47aiiZTjz7XEFrxoLK-45" value="enciendo el led3" style="rounded=1;whiteSpace=wrap;html=1;fillColor=#f5f5f5;gradientColor=#b3b3b3;strokeColor=#666666;" parent="WIyWlLk6GJQsqaUBKTNV-1" vertex="1">
          <mxGeometry x="453" y="742" width="60" height="30" as="geometry" />
        </mxCell>
        <mxCell id="V5rcfbVwR7VhMaBgpMkB-2" value="boton4 apretado?" style="rounded=1;whiteSpace=wrap;html=1;fillColor=#f5f5f5;gradientColor=#b3b3b3;strokeColor=#666666;" parent="WIyWlLk6GJQsqaUBKTNV-1" vertex="1">
          <mxGeometry x="533" y="822" width="100" height="20" as="geometry" />
        </mxCell>
        <mxCell id="V5rcfbVwR7VhMaBgpMkB-6" value="led4 apagado" style="rounded=1;whiteSpace=wrap;html=1;fillColor=#f5f5f5;gradientColor=#b3b3b3;strokeColor=#666666;" parent="WIyWlLk6GJQsqaUBKTNV-1" vertex="1">
          <mxGeometry x="653" y="882" width="60" height="30" as="geometry" />
        </mxCell>
        <mxCell id="V5rcfbVwR7VhMaBgpMkB-8" value="enciendo el led4" style="rounded=1;whiteSpace=wrap;html=1;fillColor=#f5f5f5;gradientColor=#b3b3b3;strokeColor=#666666;" parent="WIyWlLk6GJQsqaUBKTNV-1" vertex="1">
          <mxGeometry x="455.5" y="882" width="55" height="30" as="geometry" />
        </mxCell>
        <mxCell id="V5rcfbVwR7VhMaBgpMkB-9" value="" style="endArrow=classic;html=1;rounded=1;exitX=0.5;exitY=1;exitDx=0;exitDy=0;startArrow=none;" parent="WIyWlLk6GJQsqaUBKTNV-1" source="Ib47aiiZTjz7XEFrxoLK-26" edge="1">
          <mxGeometry width="50" height="50" relative="1" as="geometry">
            <mxPoint x="583" y="372" as="sourcePoint" />
            <mxPoint x="583" y="412" as="targetPoint" />
          </mxGeometry>
        </mxCell>
        <mxCell id="V5rcfbVwR7VhMaBgpMkB-10" value="" style="endArrow=classic;html=1;rounded=1;entryX=0.044;entryY=0.497;entryDx=0;entryDy=0;entryPerimeter=0;fillColor=#b0e3e6;strokeColor=#0e8088;" parent="WIyWlLk6GJQsqaUBKTNV-1" target="Ib47aiiZTjz7XEFrxoLK-7" edge="1">
          <mxGeometry width="50" height="50" relative="1" as="geometry">
            <mxPoint x="403" y="332" as="sourcePoint" />
            <mxPoint x="583" y="512" as="targetPoint" />
          </mxGeometry>
        </mxCell>
        <mxCell id="V5rcfbVwR7VhMaBgpMkB-11" value="" style="endArrow=none;html=1;rounded=1;fillColor=#b0e3e6;strokeColor=#0e8088;" parent="WIyWlLk6GJQsqaUBKTNV-1" edge="1">
          <mxGeometry width="50" height="50" relative="1" as="geometry">
            <mxPoint x="403" y="962" as="sourcePoint" />
            <mxPoint x="403" y="332" as="targetPoint" />
          </mxGeometry>
        </mxCell>
        <mxCell id="V5rcfbVwR7VhMaBgpMkB-12" value="" style="endArrow=none;html=1;rounded=1;fillColor=#b0e3e6;strokeColor=#0e8088;" parent="WIyWlLk6GJQsqaUBKTNV-1" edge="1">
          <mxGeometry width="50" height="50" relative="1" as="geometry">
            <mxPoint x="403" y="962" as="sourcePoint" />
            <mxPoint x="583" y="962" as="targetPoint" />
          </mxGeometry>
        </mxCell>
        <mxCell id="Ib47aiiZTjz7XEFrxoLK-26" value="boton1 apretado?" style="rounded=1;whiteSpace=wrap;html=1;fillColor=#f5f5f5;gradientColor=#b3b3b3;strokeColor=#666666;" parent="WIyWlLk6GJQsqaUBKTNV-1" vertex="1">
          <mxGeometry x="533" y="402" width="100" height="20" as="geometry" />
        </mxCell>
        <mxCell id="V5rcfbVwR7VhMaBgpMkB-49" value="" style="endArrow=none;html=1;rounded=1;entryX=0;entryY=0.5;entryDx=0;entryDy=0;fillColor=#b0e3e6;strokeColor=#0e8088;" parent="WIyWlLk6GJQsqaUBKTNV-1" target="Ib47aiiZTjz7XEFrxoLK-26" edge="1">
          <mxGeometry width="50" height="50" relative="1" as="geometry">
            <mxPoint x="483" y="412" as="sourcePoint" />
            <mxPoint x="523" y="452" as="targetPoint" />
          </mxGeometry>
        </mxCell>
        <mxCell id="V5rcfbVwR7VhMaBgpMkB-50" value="" style="endArrow=none;html=1;rounded=1;entryX=0;entryY=0.5;entryDx=0;entryDy=0;fillColor=#b0e3e6;strokeColor=#0e8088;" parent="WIyWlLk6GJQsqaUBKTNV-1" edge="1">
          <mxGeometry width="50" height="50" relative="1" as="geometry">
            <mxPoint x="633" y="411.8" as="sourcePoint" />
            <mxPoint x="683" y="411.8" as="targetPoint" />
          </mxGeometry>
        </mxCell>
        <mxCell id="V5rcfbVwR7VhMaBgpMkB-51" value="" style="endArrow=none;html=1;rounded=1;entryX=0;entryY=0.5;entryDx=0;entryDy=0;fillColor=#b0e3e6;strokeColor=#0e8088;" parent="WIyWlLk6GJQsqaUBKTNV-1" edge="1">
          <mxGeometry width="50" height="50" relative="1" as="geometry">
            <mxPoint x="633" y="551.8" as="sourcePoint" />
            <mxPoint x="683" y="551.8" as="targetPoint" />
          </mxGeometry>
        </mxCell>
        <mxCell id="V5rcfbVwR7VhMaBgpMkB-52" value="" style="endArrow=none;html=1;rounded=1;entryX=0;entryY=0.5;entryDx=0;entryDy=0;fillColor=#b0e3e6;strokeColor=#0e8088;" parent="WIyWlLk6GJQsqaUBKTNV-1" edge="1">
          <mxGeometry width="50" height="50" relative="1" as="geometry">
            <mxPoint x="483" y="551.8" as="sourcePoint" />
            <mxPoint x="533" y="551.8" as="targetPoint" />
            <Array as="points" />
          </mxGeometry>
        </mxCell>
        <mxCell id="V5rcfbVwR7VhMaBgpMkB-53" value="" style="endArrow=none;html=1;rounded=1;entryX=0;entryY=0.5;entryDx=0;entryDy=0;fillColor=#b0e3e6;strokeColor=#0e8088;" parent="WIyWlLk6GJQsqaUBKTNV-1" edge="1">
          <mxGeometry width="50" height="50" relative="1" as="geometry">
            <mxPoint x="483" y="691.8" as="sourcePoint" />
            <mxPoint x="533" y="691.8" as="targetPoint" />
            <Array as="points" />
          </mxGeometry>
        </mxCell>
        <mxCell id="V5rcfbVwR7VhMaBgpMkB-54" value="" style="endArrow=none;html=1;rounded=1;entryX=0;entryY=0.5;entryDx=0;entryDy=0;fillColor=#b0e3e6;strokeColor=#0e8088;" parent="WIyWlLk6GJQsqaUBKTNV-1" edge="1">
          <mxGeometry width="50" height="50" relative="1" as="geometry">
            <mxPoint x="633" y="691.8" as="sourcePoint" />
            <mxPoint x="683" y="691.8" as="targetPoint" />
            <Array as="points" />
          </mxGeometry>
        </mxCell>
        <mxCell id="V5rcfbVwR7VhMaBgpMkB-55" value="" style="endArrow=none;html=1;rounded=1;entryX=0;entryY=0.5;entryDx=0;entryDy=0;fillColor=#b0e3e6;strokeColor=#0e8088;" parent="WIyWlLk6GJQsqaUBKTNV-1" edge="1">
          <mxGeometry width="50" height="50" relative="1" as="geometry">
            <mxPoint x="633" y="831.8" as="sourcePoint" />
            <mxPoint x="683" y="831.8" as="targetPoint" />
            <Array as="points" />
          </mxGeometry>
        </mxCell>
        <mxCell id="V5rcfbVwR7VhMaBgpMkB-56" value="" style="endArrow=none;html=1;rounded=1;entryX=0;entryY=0.5;entryDx=0;entryDy=0;fillColor=#b0e3e6;strokeColor=#0e8088;" parent="WIyWlLk6GJQsqaUBKTNV-1" edge="1">
          <mxGeometry width="50" height="50" relative="1" as="geometry">
            <mxPoint x="483" y="831.8" as="sourcePoint" />
            <mxPoint x="533" y="831.8" as="targetPoint" />
            <Array as="points" />
          </mxGeometry>
        </mxCell>
        <mxCell id="V5rcfbVwR7VhMaBgpMkB-57" value="" style="endArrow=classic;html=1;rounded=1;entryX=0.5;entryY=0;entryDx=0;entryDy=0;fillColor=#b0e3e6;strokeColor=#0e8088;" parent="WIyWlLk6GJQsqaUBKTNV-1" target="V5rcfbVwR7VhMaBgpMkB-8" edge="1">
          <mxGeometry width="50" height="50" relative="1" as="geometry">
            <mxPoint x="483" y="832" as="sourcePoint" />
            <mxPoint x="503" y="822" as="targetPoint" />
          </mxGeometry>
        </mxCell>
        <mxCell id="V5rcfbVwR7VhMaBgpMkB-58" value="" style="endArrow=classic;html=1;rounded=1;entryX=0.5;entryY=0;entryDx=0;entryDy=0;fillColor=#b0e3e6;strokeColor=#0e8088;" parent="WIyWlLk6GJQsqaUBKTNV-1" edge="1">
          <mxGeometry width="50" height="50" relative="1" as="geometry">
            <mxPoint x="682.8" y="832" as="sourcePoint" />
            <mxPoint x="682.8" y="882" as="targetPoint" />
          </mxGeometry>
        </mxCell>
        <mxCell id="V5rcfbVwR7VhMaBgpMkB-59" value="" style="endArrow=classic;html=1;rounded=1;entryX=0.5;entryY=0;entryDx=0;entryDy=0;fillColor=#b0e3e6;strokeColor=#0e8088;" parent="WIyWlLk6GJQsqaUBKTNV-1" edge="1">
          <mxGeometry width="50" height="50" relative="1" as="geometry">
            <mxPoint x="682.8" y="692" as="sourcePoint" />
            <mxPoint x="682.8" y="742" as="targetPoint" />
          </mxGeometry>
        </mxCell>
        <mxCell id="V5rcfbVwR7VhMaBgpMkB-60" value="" style="endArrow=classic;html=1;rounded=1;entryX=0.5;entryY=0;entryDx=0;entryDy=0;fillColor=#b0e3e6;strokeColor=#0e8088;" parent="WIyWlLk6GJQsqaUBKTNV-1" edge="1">
          <mxGeometry width="50" height="50" relative="1" as="geometry">
            <mxPoint x="482.79999999999995" y="692" as="sourcePoint" />
            <mxPoint x="482.79999999999995" y="742" as="targetPoint" />
          </mxGeometry>
        </mxCell>
        <mxCell id="V5rcfbVwR7VhMaBgpMkB-62" value="" style="endArrow=classic;html=1;rounded=1;entryX=0.5;entryY=0;entryDx=0;entryDy=0;fillColor=#b0e3e6;strokeColor=#0e8088;" parent="WIyWlLk6GJQsqaUBKTNV-1" edge="1">
          <mxGeometry width="50" height="50" relative="1" as="geometry">
            <mxPoint x="682.8" y="552" as="sourcePoint" />
            <mxPoint x="682.8" y="602" as="targetPoint" />
          </mxGeometry>
        </mxCell>
        <mxCell id="V5rcfbVwR7VhMaBgpMkB-63" value="" style="endArrow=classic;html=1;rounded=1;entryX=0.5;entryY=0;entryDx=0;entryDy=0;fillColor=#b0e3e6;strokeColor=#0e8088;" parent="WIyWlLk6GJQsqaUBKTNV-1" edge="1">
          <mxGeometry width="50" height="50" relative="1" as="geometry">
            <mxPoint x="482.79999999999995" y="552" as="sourcePoint" />
            <mxPoint x="482.79999999999995" y="602" as="targetPoint" />
          </mxGeometry>
        </mxCell>
        <mxCell id="V5rcfbVwR7VhMaBgpMkB-64" value="" style="endArrow=classic;html=1;rounded=1;entryX=0.5;entryY=0;entryDx=0;entryDy=0;fillColor=#b0e3e6;strokeColor=#0e8088;" parent="WIyWlLk6GJQsqaUBKTNV-1" edge="1">
          <mxGeometry width="50" height="50" relative="1" as="geometry">
            <mxPoint x="482.79999999999995" y="412" as="sourcePoint" />
            <mxPoint x="482.79999999999995" y="462" as="targetPoint" />
          </mxGeometry>
        </mxCell>
        <mxCell id="V5rcfbVwR7VhMaBgpMkB-65" value="" style="endArrow=classic;html=1;rounded=1;entryX=0.5;entryY=0;entryDx=0;entryDy=0;fillColor=#b0e3e6;strokeColor=#0e8088;" parent="WIyWlLk6GJQsqaUBKTNV-1" edge="1">
          <mxGeometry width="50" height="50" relative="1" as="geometry">
            <mxPoint x="682.8" y="412" as="sourcePoint" />
            <mxPoint x="682.8" y="462" as="targetPoint" />
          </mxGeometry>
        </mxCell>
        <mxCell id="V5rcfbVwR7VhMaBgpMkB-66" value="" style="endArrow=classic;html=1;rounded=1;entryX=0.5;entryY=0;entryDx=0;entryDy=0;exitX=0.5;exitY=0.968;exitDx=0;exitDy=0;exitPerimeter=0;fillColor=#b0e3e6;strokeColor=#0e8088;" parent="WIyWlLk6GJQsqaUBKTNV-1" source="Ib47aiiZTjz7XEFrxoLK-7" target="Ib47aiiZTjz7XEFrxoLK-26" edge="1">
          <mxGeometry width="50" height="50" relative="1" as="geometry">
            <mxPoint x="513" y="432" as="sourcePoint" />
            <mxPoint x="563" y="382" as="targetPoint" />
          </mxGeometry>
        </mxCell>
        <mxCell id="V5rcfbVwR7VhMaBgpMkB-67" value="" style="endArrow=none;html=1;rounded=1;entryX=0.5;entryY=1;entryDx=0;entryDy=0;fillColor=#b0e3e6;strokeColor=#0e8088;" parent="WIyWlLk6GJQsqaUBKTNV-1" target="Ib47aiiZTjz7XEFrxoLK-29" edge="1">
          <mxGeometry width="50" height="50" relative="1" as="geometry">
            <mxPoint x="483" y="512" as="sourcePoint" />
            <mxPoint x="573" y="442" as="targetPoint" />
          </mxGeometry>
        </mxCell>
        <mxCell id="V5rcfbVwR7VhMaBgpMkB-68" value="" style="endArrow=none;html=1;rounded=1;entryX=0.5;entryY=1;entryDx=0;entryDy=0;fillColor=#b0e3e6;strokeColor=#0e8088;" parent="WIyWlLk6GJQsqaUBKTNV-1" edge="1">
          <mxGeometry width="50" height="50" relative="1" as="geometry">
            <mxPoint x="682.8" y="512" as="sourcePoint" />
            <mxPoint x="682.8" y="492" as="targetPoint" />
          </mxGeometry>
        </mxCell>
        <mxCell id="V5rcfbVwR7VhMaBgpMkB-69" value="" style="endArrow=none;html=1;rounded=1;fillColor=#b0e3e6;strokeColor=#0e8088;" parent="WIyWlLk6GJQsqaUBKTNV-1" edge="1">
          <mxGeometry width="50" height="50" relative="1" as="geometry">
            <mxPoint x="483" y="512" as="sourcePoint" />
            <mxPoint x="683" y="512" as="targetPoint" />
          </mxGeometry>
        </mxCell>
        <mxCell id="V5rcfbVwR7VhMaBgpMkB-70" value="" style="endArrow=none;html=1;rounded=1;entryX=0.5;entryY=1;entryDx=0;entryDy=0;fillColor=#b0e3e6;strokeColor=#0e8088;" parent="WIyWlLk6GJQsqaUBKTNV-1" edge="1">
          <mxGeometry width="50" height="50" relative="1" as="geometry">
            <mxPoint x="482.8" y="652" as="sourcePoint" />
            <mxPoint x="482.8" y="632" as="targetPoint" />
          </mxGeometry>
        </mxCell>
        <mxCell id="V5rcfbVwR7VhMaBgpMkB-71" value="" style="endArrow=none;html=1;rounded=1;entryX=0.5;entryY=1;entryDx=0;entryDy=0;fillColor=#b0e3e6;strokeColor=#0e8088;" parent="WIyWlLk6GJQsqaUBKTNV-1" edge="1">
          <mxGeometry width="50" height="50" relative="1" as="geometry">
            <mxPoint x="682.8" y="652" as="sourcePoint" />
            <mxPoint x="682.8" y="632" as="targetPoint" />
          </mxGeometry>
        </mxCell>
        <mxCell id="V5rcfbVwR7VhMaBgpMkB-72" value="" style="endArrow=none;html=1;rounded=1;fillColor=#b0e3e6;strokeColor=#0e8088;" parent="WIyWlLk6GJQsqaUBKTNV-1" edge="1">
          <mxGeometry width="50" height="50" relative="1" as="geometry">
            <mxPoint x="483" y="652" as="sourcePoint" />
            <mxPoint x="683" y="652" as="targetPoint" />
          </mxGeometry>
        </mxCell>
        <mxCell id="V5rcfbVwR7VhMaBgpMkB-73" value="" style="endArrow=none;html=1;rounded=1;entryX=0.5;entryY=1;entryDx=0;entryDy=0;fillColor=#b0e3e6;strokeColor=#0e8088;" parent="WIyWlLk6GJQsqaUBKTNV-1" edge="1">
          <mxGeometry width="50" height="50" relative="1" as="geometry">
            <mxPoint x="482.79999999999995" y="792" as="sourcePoint" />
            <mxPoint x="482.79999999999995" y="772" as="targetPoint" />
            <Array as="points" />
          </mxGeometry>
        </mxCell>
        <mxCell id="V5rcfbVwR7VhMaBgpMkB-75" value="" style="endArrow=none;html=1;rounded=1;entryX=0.5;entryY=1;entryDx=0;entryDy=0;fillColor=#b0e3e6;strokeColor=#0e8088;" parent="WIyWlLk6GJQsqaUBKTNV-1" edge="1">
          <mxGeometry width="50" height="50" relative="1" as="geometry">
            <mxPoint x="682.8299999999998" y="792" as="sourcePoint" />
            <mxPoint x="682.8299999999998" y="772" as="targetPoint" />
            <Array as="points">
              <mxPoint x="682.8299999999999" y="782" />
            </Array>
          </mxGeometry>
        </mxCell>
        <mxCell id="V5rcfbVwR7VhMaBgpMkB-76" value="" style="endArrow=none;html=1;rounded=1;fillColor=#b0e3e6;strokeColor=#0e8088;" parent="WIyWlLk6GJQsqaUBKTNV-1" edge="1">
          <mxGeometry width="50" height="50" relative="1" as="geometry">
            <mxPoint x="483" y="792" as="sourcePoint" />
            <mxPoint x="683" y="792" as="targetPoint" />
          </mxGeometry>
        </mxCell>
        <mxCell id="V5rcfbVwR7VhMaBgpMkB-77" value="" style="endArrow=none;html=1;rounded=1;entryX=0.5;entryY=1;entryDx=0;entryDy=0;fillColor=#b0e3e6;strokeColor=#0e8088;" parent="WIyWlLk6GJQsqaUBKTNV-1" edge="1">
          <mxGeometry width="50" height="50" relative="1" as="geometry">
            <mxPoint x="482.8299999999998" y="932" as="sourcePoint" />
            <mxPoint x="482.8299999999998" y="912" as="targetPoint" />
            <Array as="points" />
          </mxGeometry>
        </mxCell>
        <mxCell id="V5rcfbVwR7VhMaBgpMkB-78" value="" style="endArrow=none;html=1;rounded=1;entryX=0.5;entryY=1;entryDx=0;entryDy=0;fillColor=#b0e3e6;strokeColor=#0e8088;" parent="WIyWlLk6GJQsqaUBKTNV-1" edge="1">
          <mxGeometry width="50" height="50" relative="1" as="geometry">
            <mxPoint x="682.8299999999998" y="932" as="sourcePoint" />
            <mxPoint x="682.8299999999998" y="912" as="targetPoint" />
            <Array as="points" />
          </mxGeometry>
        </mxCell>
        <mxCell id="V5rcfbVwR7VhMaBgpMkB-79" value="" style="endArrow=none;html=1;rounded=1;fillColor=#b0e3e6;strokeColor=#0e8088;" parent="WIyWlLk6GJQsqaUBKTNV-1" edge="1">
          <mxGeometry width="50" height="50" relative="1" as="geometry">
            <mxPoint x="483" y="932" as="sourcePoint" />
            <mxPoint x="683" y="932" as="targetPoint" />
          </mxGeometry>
        </mxCell>
        <mxCell id="V5rcfbVwR7VhMaBgpMkB-82" value="" style="endArrow=classic;html=1;rounded=1;fillColor=#b0e3e6;strokeColor=#0e8088;" parent="WIyWlLk6GJQsqaUBKTNV-1" edge="1">
          <mxGeometry width="50" height="50" relative="1" as="geometry">
            <mxPoint x="583" y="932" as="sourcePoint" />
            <mxPoint x="583" y="962" as="targetPoint" />
          </mxGeometry>
        </mxCell>
        <mxCell id="V5rcfbVwR7VhMaBgpMkB-83" value="" style="endArrow=classic;html=1;rounded=1;entryX=0.5;entryY=0;entryDx=0;entryDy=0;fillColor=#b0e3e6;strokeColor=#0e8088;" parent="WIyWlLk6GJQsqaUBKTNV-1" target="V5rcfbVwR7VhMaBgpMkB-2" edge="1">
          <mxGeometry width="50" height="50" relative="1" as="geometry">
            <mxPoint x="583" y="792" as="sourcePoint" />
            <mxPoint x="593" y="832" as="targetPoint" />
          </mxGeometry>
        </mxCell>
        <mxCell id="V5rcfbVwR7VhMaBgpMkB-84" value="" style="endArrow=classic;html=1;rounded=1;entryX=0.5;entryY=0;entryDx=0;entryDy=0;fillColor=#b0e3e6;strokeColor=#0e8088;" parent="WIyWlLk6GJQsqaUBKTNV-1" edge="1">
          <mxGeometry width="50" height="50" relative="1" as="geometry">
            <mxPoint x="582.8" y="652" as="sourcePoint" />
            <mxPoint x="582.8" y="682" as="targetPoint" />
          </mxGeometry>
        </mxCell>
        <mxCell id="V5rcfbVwR7VhMaBgpMkB-85" value="" style="endArrow=classic;html=1;rounded=1;entryX=0.5;entryY=0;entryDx=0;entryDy=0;fillColor=#b0e3e6;strokeColor=#0e8088;" parent="WIyWlLk6GJQsqaUBKTNV-1" edge="1">
          <mxGeometry width="50" height="50" relative="1" as="geometry">
            <mxPoint x="582.8" y="512" as="sourcePoint" />
            <mxPoint x="582.8" y="542" as="targetPoint" />
          </mxGeometry>
        </mxCell>
        <mxCell id="V5rcfbVwR7VhMaBgpMkB-89" value="" style="endArrow=none;html=1;rounded=1;fontSize=12;startSize=14;endSize=14;fillColor=#b0e3e6;strokeColor=#0e8088;entryX=0.962;entryY=0.498;entryDx=0;entryDy=0;entryPerimeter=0;" parent="WIyWlLk6GJQsqaUBKTNV-1" target="Ib47aiiZTjz7XEFrxoLK-7" edge="1">
          <mxGeometry width="50" height="50" relative="1" as="geometry">
            <mxPoint x="763" y="332" as="sourcePoint" />
            <mxPoint x="643" y="332" as="targetPoint" />
          </mxGeometry>
        </mxCell>
        <mxCell id="V5rcfbVwR7VhMaBgpMkB-92" value="" style="endArrow=none;html=1;rounded=1;fontSize=12;startSize=14;endSize=14;fillColor=#b0e3e6;strokeColor=#0e8088;" parent="WIyWlLk6GJQsqaUBKTNV-1" edge="1">
          <mxGeometry width="50" height="50" relative="1" as="geometry">
            <mxPoint x="583" y="1021" as="sourcePoint" />
            <mxPoint x="763" y="1022" as="targetPoint" />
          </mxGeometry>
        </mxCell>
        <mxCell id="V5rcfbVwR7VhMaBgpMkB-93" value="" style="endArrow=classic;html=1;rounded=1;fontSize=12;startSize=14;endSize=14;fillColor=#b0e3e6;strokeColor=#0e8088;entryX=0.5;entryY=0;entryDx=0;entryDy=0;" parent="WIyWlLk6GJQsqaUBKTNV-1" target="V5rcfbVwR7VhMaBgpMkB-94" edge="1">
          <mxGeometry width="50" height="50" relative="1" as="geometry">
            <mxPoint x="583" y="1021" as="sourcePoint" />
            <mxPoint x="593" y="1082" as="targetPoint" />
          </mxGeometry>
        </mxCell>
        <mxCell id="V5rcfbVwR7VhMaBgpMkB-94" value="FIN" style="ellipse;whiteSpace=wrap;html=1;fontSize=16;rounded=1;fillColor=#f5f5f5;gradientColor=#b3b3b3;strokeColor=#666666;" parent="WIyWlLk6GJQsqaUBKTNV-1" vertex="1">
          <mxGeometry x="523" y="1081" width="120" height="80" as="geometry" />
        </mxCell>
        <mxCell id="V5rcfbVwR7VhMaBgpMkB-97" value="Verdadero" style="rounded=1;whiteSpace=wrap;html=1;fillColor=#b0e3e6;strokeColor=#0e8088;" parent="WIyWlLk6GJQsqaUBKTNV-1" vertex="1">
          <mxGeometry x="340" y="332" width="60" height="30" as="geometry" />
        </mxCell>
        <mxCell id="V5rcfbVwR7VhMaBgpMkB-98" value="Falso" style="rounded=1;whiteSpace=wrap;html=1;fillColor=#b0e3e6;strokeColor=#0e8088;" parent="WIyWlLk6GJQsqaUBKTNV-1" vertex="1">
          <mxGeometry x="766" y="332" width="60" height="30" as="geometry" />
        </mxCell>
        <mxCell id="V5rcfbVwR7VhMaBgpMkB-99" value="ningun boton apretado?" style="rounded=1;whiteSpace=wrap;html=1;fillColor=#f5f5f5;gradientColor=#b3b3b3;strokeColor=#666666;" parent="WIyWlLk6GJQsqaUBKTNV-1" vertex="1">
          <mxGeometry x="713" y="422" width="100" height="32" as="geometry" />
        </mxCell>
        <mxCell id="V5rcfbVwR7VhMaBgpMkB-101" value="" style="endArrow=classic;html=1;rounded=1;entryX=0.5;entryY=0;entryDx=0;entryDy=0;fillColor=#b0e3e6;strokeColor=#0e8088;" parent="WIyWlLk6GJQsqaUBKTNV-1" target="V5rcfbVwR7VhMaBgpMkB-99" edge="1">
          <mxGeometry width="50" height="50" relative="1" as="geometry">
            <mxPoint x="762.5799999999999" y="332" as="sourcePoint" />
            <mxPoint x="762.5799999999999" y="382" as="targetPoint" />
          </mxGeometry>
        </mxCell>
        <mxCell id="V5rcfbVwR7VhMaBgpMkB-105" value="" style="endArrow=classic;html=1;rounded=1;fillColor=#b0e3e6;strokeColor=#0e8088;" parent="WIyWlLk6GJQsqaUBKTNV-1" edge="1">
          <mxGeometry width="50" height="50" relative="1" as="geometry">
            <mxPoint x="762.5799999999999" y="454" as="sourcePoint" />
            <mxPoint x="763" y="1023" as="targetPoint" />
          </mxGeometry>
        </mxCell>
        <mxCell id="V5rcfbVwR7VhMaBgpMkB-106" value="si" style="rounded=1;whiteSpace=wrap;html=1;labelBackgroundColor=none;fontSize=14;direction=west;fillColor=#b0e3e6;strokeColor=#0e8088;" parent="WIyWlLk6GJQsqaUBKTNV-1" vertex="1">
          <mxGeometry x="464" y="397" width="20" height="15" as="geometry" />
        </mxCell>
        <mxCell id="V5rcfbVwR7VhMaBgpMkB-107" value="no" style="rounded=1;whiteSpace=wrap;html=1;labelBackgroundColor=none;fontSize=14;fillColor=#b0e3e6;strokeColor=#0e8088;" parent="WIyWlLk6GJQsqaUBKTNV-1" vertex="1">
          <mxGeometry x="682" y="397" width="20" height="15" as="geometry" />
        </mxCell>
        <mxCell id="V5rcfbVwR7VhMaBgpMkB-108" value="si" style="rounded=1;whiteSpace=wrap;html=1;labelBackgroundColor=none;fontSize=14;direction=west;fillColor=#b0e3e6;strokeColor=#0e8088;" parent="WIyWlLk6GJQsqaUBKTNV-1" vertex="1">
          <mxGeometry x="464" y="537" width="20" height="15" as="geometry" />
        </mxCell>
        <mxCell id="V5rcfbVwR7VhMaBgpMkB-109" value="no" style="rounded=1;whiteSpace=wrap;html=1;labelBackgroundColor=none;fontSize=14;direction=west;fillColor=#b0e3e6;strokeColor=#0e8088;" parent="WIyWlLk6GJQsqaUBKTNV-1" vertex="1">
          <mxGeometry x="682" y="537" width="20" height="15" as="geometry" />
        </mxCell>
        <mxCell id="V5rcfbVwR7VhMaBgpMkB-110" value="si" style="rounded=1;whiteSpace=wrap;html=1;labelBackgroundColor=none;fontSize=14;direction=west;fillColor=#b0e3e6;strokeColor=#0e8088;" parent="WIyWlLk6GJQsqaUBKTNV-1" vertex="1">
          <mxGeometry x="464" y="677" width="20" height="15" as="geometry" />
        </mxCell>
        <mxCell id="V5rcfbVwR7VhMaBgpMkB-113" value="no" style="rounded=1;whiteSpace=wrap;html=1;labelBackgroundColor=none;fontSize=14;direction=west;fillColor=#b0e3e6;strokeColor=#0e8088;" parent="WIyWlLk6GJQsqaUBKTNV-1" vertex="1">
          <mxGeometry x="682" y="677" width="20" height="15" as="geometry" />
        </mxCell>
        <mxCell id="V5rcfbVwR7VhMaBgpMkB-114" value="si" style="rounded=1;whiteSpace=wrap;html=1;labelBackgroundColor=none;fontSize=14;direction=west;fillColor=#b0e3e6;strokeColor=#0e8088;" parent="WIyWlLk6GJQsqaUBKTNV-1" vertex="1">
          <mxGeometry x="464" y="817" width="20" height="15" as="geometry" />
        </mxCell>
        <mxCell id="V5rcfbVwR7VhMaBgpMkB-116" value="no" style="rounded=1;whiteSpace=wrap;html=1;labelBackgroundColor=none;fontSize=14;direction=west;fillColor=#b0e3e6;strokeColor=#0e8088;" parent="WIyWlLk6GJQsqaUBKTNV-1" vertex="1">
          <mxGeometry x="682" y="817" width="20" height="15" as="geometry" />
        </mxCell>
      </root>
    </mxGraphModel>
  </diagram>
</mxfile>
